<svg width="54" height="59" viewBox="0 0 54 59" fill="none" xmlns="http://www.w3.org/2000/svg">
<path fill-rule="evenodd" clip-rule="evenodd" d="M25.1898 24.9486L25.9112 25.0195L25.9224 25.0212C25.6664 24.9823 25.4247 24.9458 25.1898 24.9486ZM24.792 29.3683C24.2968 29.1612 23.8914 28.4587 23.8914 28.4587C23.8914 28.4587 24.9634 28.4454 26.8778 28.4454C28.7923 28.4454 29.8643 28.4587 29.8643 28.4587C29.8643 28.4587 29.4589 29.1612 28.9636 29.3683C28.4684 29.5754 27.5296 29.7448 26.8778 29.7448C26.226 29.7448 25.2872 29.5754 24.792 29.3683ZM9.6085 58.3318V47.4168V36.5018H26.8778H44.1472V47.4168V58.3318H26.8778H9.6085Z" fill="black"/>
<path fill-rule="evenodd" clip-rule="evenodd" d="M25.0307 0.112893C24.3004 0.222823 23.11 0.509992 22.3852 0.750642C21.6607 0.991552 20.3383 1.66049 19.4471 2.2369C18.5558 2.81332 17.2073 3.9199 16.4503 4.6959C15.693 5.47191 14.6197 6.77678 14.0648 7.59566C13.5095 8.41429 12.698 9.79374 12.2612 10.6607C11.8244 11.5277 11.0487 13.4401 10.5374 14.9103C10.0258 16.3807 9.374 18.7303 9.0886 20.1316C8.74477 21.8208 8.5726 23.6735 8.57831 25.6275C8.58455 27.8074 8.70946 28.914 9.05796 29.8748C9.31713 30.5895 9.60305 31.3496 9.69316 31.564C9.81547 31.8551 9.3366 32.2002 7.8021 32.9263C6.53586 33.5256 5.14522 34.4568 4.1784 35.3523C3.31571 36.1517 2.25462 37.4269 1.82042 38.1863C1.38648 38.9457 0.799063 40.4748 0.515483 41.5843C0.0802439 43.2873 0 44.4661 0 49.1476V54.6935H3.89222H7.78444L7.85248 44.753L7.92052 34.8125H12.6648H17.4088L16.69 34.3001C16.2945 34.0181 15.3019 33.1555 14.4844 32.3829C13.6669 31.61 12.7027 30.3852 12.342 29.6606C11.9431 28.86 11.686 27.9007 11.686 27.2146C11.686 26.5842 11.9283 25.6026 12.2347 24.9916C12.5365 24.39 13.0242 23.6343 13.3187 23.3128C13.6132 22.9913 13.9318 22.728 14.0268 22.728C14.1219 22.728 14.3351 23.0259 14.5008 23.39C14.6667 23.7541 14.8023 24.3726 14.8023 24.7645C14.8023 25.1561 15.0103 25.8817 15.2648 26.3765C15.519 26.8711 16.731 28.5647 17.958 30.1401C19.6977 32.3736 20.4965 33.1748 21.5856 33.7785C22.9612 34.541 23.0414 34.5527 26.8778 34.5527C30.7158 34.5527 30.7937 34.5412 32.1726 33.7769C33.2846 33.1607 34.0717 32.3598 36.0036 29.8787C37.3404 28.1614 38.5415 26.4054 38.6721 25.9766C38.8028 25.5478 38.9793 24.7788 39.0648 24.2676C39.15 23.7564 39.3712 23.1306 39.5564 22.8772C39.8625 22.4583 39.9851 22.55 40.9005 23.8801C41.7183 25.0683 41.9284 25.6268 42.0167 26.8482C42.1055 28.078 42.0068 28.5866 41.476 29.6336C41.1189 30.3379 40.1422 31.5609 39.3058 32.3509C38.4693 33.141 37.4612 34.0181 37.0657 34.3001L36.3469 34.8125H41.0909H45.8351L45.9032 44.753L45.9712 54.6935H49.8634H53.7557V49.0577C53.7557 44.7494 53.657 43.0201 53.3365 41.716C53.1062 40.7779 52.553 39.3085 52.1077 38.4509C51.6623 37.5933 50.6978 36.2978 49.9642 35.5719C49.2306 34.8461 48.1181 33.9567 47.4925 33.5953C46.8666 33.234 45.7938 32.728 45.1085 32.471C44.1451 32.1095 43.9038 31.9097 44.0448 31.589C44.1448 31.3608 44.4497 30.5437 44.7218 29.7729C45.0903 28.73 45.2171 27.6632 45.2171 25.6021C45.2171 23.8302 45.0246 21.8876 44.6826 20.2082C44.3887 18.7646 43.7298 16.3807 43.2183 14.9103C42.7069 13.4401 41.9312 11.5277 41.4944 10.6607C41.0576 9.79374 40.2461 8.41429 39.6909 7.59566C39.1359 6.77678 38.0626 5.47191 37.3054 4.6959C36.5484 3.9199 35.1829 2.80241 34.2709 2.21248C33.3589 1.62254 31.848 0.917746 30.9139 0.64617C29.9796 0.374593 28.5723 0.0985992 27.7867 0.0328492C27.0012 -0.0329009 25.7609 0.00322265 25.0307 0.112893ZM18.9573 20.3098C18.9573 20.998 19.1552 21.477 19.6551 21.9991C20.2815 22.6535 20.5282 22.728 22.0653 22.728H23.7779L25.3202 21.1682L26.8628 19.6084L28.4354 21.1682L30.0081 22.728H31.7054C33.2262 22.728 33.4752 22.6522 34.1006 21.9991C34.6005 21.477 34.7983 20.998 34.7983 20.3098C34.7983 19.7818 34.7773 19.3496 34.7773 19.3496C34.7773 19.3496 35.6351 19.5541 36.0742 19.8044C36.5715 20.0876 36.8733 20.4676 36.8743 20.8122C36.8751 21.1163 36.7136 21.4998 36.5152 21.6643C36.317 21.8291 36.0716 22.6329 35.9703 23.4505C35.8161 24.6935 35.5681 25.2229 34.4576 26.6821C33.6297 27.7701 33.1104 28.7854 33.1104 28.7854C33.1104 28.7854 32.8507 27.6774 32.7247 27.3279C32.6165 27.0277 32.5476 26.5252 32.3357 26.1153C32.1036 25.6655 31.6143 25.2666 31.1022 25.1088C30.7272 24.9933 30.3548 24.9537 28.8255 24.9486C28.3061 24.9686 27.4403 25.1088 26.8212 25.1088C26.4997 25.1088 26.2045 25.064 25.9263 25.0218L25.9224 25.0212L25.9112 25.0195L25.1898 24.9486C23.2422 24.9486 22.51 25.0318 21.8975 25.645C21.4018 26.1411 21.1475 26.7167 21.0475 27.5691L20.905 28.7854L19.4408 26.8612C18.2245 25.2629 17.944 24.6948 17.7853 23.5077C17.6804 22.7215 17.4335 21.8476 17.2371 21.5656C17.0405 21.2839 16.8798 20.8665 16.8798 20.6383C16.8798 20.4102 17.2597 20.0344 17.7238 19.8031C18.1878 19.572 18.9573 19.3612 18.9573 19.3612V20.3098ZM31.098 28.9275C30.7994 28.2082 30.312 27.4644 30.0149 27.2744C29.7178 27.0844 28.7151 26.8703 27.7867 26.7986C26.8584 26.7271 25.6313 26.7508 25.06 26.8513C24.4887 26.9519 23.8631 27.1323 23.6696 27.2521C23.4762 27.3721 23.0988 27.9527 22.8314 28.5424C22.5636 29.1323 22.3421 29.8254 22.339 30.0824C22.3353 30.3831 22.727 30.7288 23.4369 31.0513C24.2542 31.4224 25.1325 31.5541 26.8212 31.5583C28.2872 31.5619 29.4397 31.4229 30.0473 31.1687C30.5675 30.9512 31.1388 30.6521 31.317 30.5042C31.5722 30.2922 31.5257 29.9574 31.098 28.9275Z" fill="black"/>
</svg>
